<svg height="512pt" viewBox="0 0 512 512" width="512pt" xmlns="http://www.w3.org/2000/svg"><path d="m376 91h-240c-24.8125 0-45 20.1875-45 45v240c0 24.8125 20.1875 45 45 45h240c24.8125 0 45-20.1875 45-45v-240c0-24.8125-20.1875-45-45-45zm-120 270c-57.890625 0-105-47.109375-105-105s47.109375-105 105-105 105 47.109375 105 105-47.109375 105-105 105zm105-180c-16.539062 0-30-13.460938-30-30s13.460938-30 30-30 30 13.460938 30 30-13.460938 30-30 30zm0 0"/><path d="m256 181c-41.351562 0-75 33.648438-75 75s33.648438 75 75 75 75-33.648438 75-75-33.648438-75-75-75zm0 0"/><path d="m436 0h-360c-41.351562 0-76 34.648438-76 76v360c0 41.351562 34.648438 76 76 76h360c41.351562 0 76-34.648438 76-76v-360c0-41.351562-34.648438-76-76-76zm15 376c0 41.351562-33.648438 75-75 75h-240c-41.351562 0-75-33.648438-75-75v-240c0-41.351562 33.648438-75 75-75h240c41.351562 0 75 33.648438 75 75zm0 0"/></svg>